<?xml version="1.0" encoding="UTF-8"?><svg id="Layer_1" xmlns="http://www.w3.org/2000/svg" viewBox="0 0 536.43 298.27"><defs><style>.cls-1{fill:#fff;}</style></defs><path class="cls-1" d="M194.75,118.63c-7.45-2.63-11.21-7.64-10.76-15.19,.45-7.57,5.87-11.5,12.38-14.99-1.42-1.28-2.64-2.26-3.72-3.37-8.8-9.16-9.96-25.38-2.29-35.42,6.44-8.41,15.48-12,25.77-12.75,8.52-.62,16.81,.42,24.45,4.53,2.32,1.25,4.41,2.93,6.78,4.54,5.08-6.84,11.73-11.3,21.16-11.4,0,3.63,.07,7.18-.09,10.73-.02,.39-1.32,.97-2.06,1.03-5.35,.41-10.48,1.56-15.46,4.21,2.67,4.3,4.17,8.89,4.46,13.84,.76,12.93-6.25,23.53-18.43,28.07-11.25,4.2-22.45,3.79-33.7,0-.99-.33-2.51-.23-3.35,.32-3.67,2.46-6.48,5.53-5.65,10.49,.52,3.1,2.46,5.35,5.56,5.98,1.94,.39,3.96,.61,5.94,.62,11.25,.06,22.5-.03,33.74,.05,6.75,.05,13.35,1.08,18.95,5.16,8.07,5.88,10.94,15.72,7.92,25.63-2.36,7.72-7.82,12.32-14.96,15.28-15.57,6.45-31.73,7.63-48.18,4.78-6.7-1.16-13.19-3.3-18.82-7.42-6.32-4.62-8.39-10.97-7.38-18.4,.96-7.03,5.6-11.27,11.73-14.1,1.79-.83,3.71-1.37,6.03-2.21Zm24.73,34.83c8.44-.01,16.7-1.07,24.67-4.05,6.68-2.5,10.71-7.01,11.49-14.24,.62-5.77-1.28-9.83-6.62-12.02-3.23-1.33-6.86-2.16-10.35-2.29-9.47-.36-18.97-.36-28.45-.23-3.53,.05-7.1,.62-10.58,1.33-3.21,.65-6.15,2.14-8.16,4.89-4.63,6.35-2.64,17.02,4.04,21.2,7.33,4.59,15.57,5.37,23.95,5.4Zm23.52-86.47c.1-8.28-2.49-14.07-7.87-17.85-4.15-2.92-8.93-3.94-13.88-4.03-6.65-.12-12.85,1.18-17.86,6.08-8.91,8.72-8.23,31.75,10.28,35.37,6.83,1.34,13.53,1.09,19.64-2.23,6.9-3.75,9.76-10.1,9.69-17.34Z"/><path class="cls-1" d="M114.39,56.83V.04h11.9V125.68h-11.84v-17.9c-2.13,3.13-3.82,6.04-5.93,8.59-5.83,7.07-13.37,10.92-22.57,11.59-9.11,.67-17.75-.58-25.46-5.82-8.67-5.89-13.82-14.32-16.33-24.26-3.6-14.25-2.88-28.22,4.23-41.42,7.41-13.76,19.17-19.93,34.6-19.66,13.9,.24,23.76,6.83,30.18,18.94,.22,.41,.46,.82,.69,1.22,.17-.05,.35-.1,.52-.15Zm.45,25.62c-.16-2.91-.23-5.82-.51-8.72-1.41-14.8-12.97-26.01-27.72-26.94-13.86-.88-23.77,5.01-28.63,17.4-3.54,9.05-3.86,18.49-2.34,28.02,1.09,6.88,3.55,13.22,8.47,18.26,7.29,7.46,16.44,9.1,26.26,7.17,10.2-2,17.61-7.81,21.71-17.55,2.38-5.66,2.73-11.61,2.75-17.64Z"/><path class="cls-1" d="M451.38,255.42h-70.96c-.05,5.69,1.24,10.86,3.74,15.69,10.54,20.4,33.69,20.59,46.12,11.72,4.77-3.41,7.68-8.22,9.57-13.68,.46-1.32,.83-2.67,1.31-4.21,3.43,.47,6.77,.93,10.11,1.39-2.92,17.33-16.96,30.14-34.18,31.62-12.63,1.08-24.2-1.39-34.12-9.66-10.5-8.75-14.99-20.23-15.17-33.67-.21-15.71,4.85-29.08,17.31-39.15,9.37-7.58,20.27-9.52,31.96-8.4,22.94,2.2,32.83,21.35,34.26,37.51,.31,3.46,.04,6.96,.04,10.84Zm-12.51-8.67c-.36-2.63-.56-5.1-1.04-7.52-3.53-17.51-18.23-26.58-35.29-21.83-11.13,3.1-21.04,16.36-21.88,29.35h58.21Z"/><path class="cls-1" d="M456.7,116.25c.7,7.01-2.35,10.68-9.22,11.25-8.5,.71-14.92-4.61-16.62-13.81-.23-1.22-.37-2.46-.63-4.22-2.8,5.35-6.53,9.29-11.19,12.32-10.51,6.83-21.81,8.6-33.58,4.09-14.51-5.56-19.3-25.1-9.01-36.02,4.71-5,10.99-7.63,17.41-9.35,10.92-2.91,22-5.25,33.06-7.6,2.67-.57,3.61-1.47,3.51-4.29-.27-7.19-1.73-13.75-7.87-18.33-5.68-4.23-12.22-4.57-18.86-3.58-9.53,1.42-15.28,7.46-18.69,16.1-.33,.84-.61,1.69-.99,2.77-3.41-.65-6.72-1.27-10.25-1.94,2.48-10.23,8-18.05,17.13-22.73,11.5-5.89,23.54-5.74,35.26-.68,9.51,4.11,13.86,12.3,15.17,22.23,.4,3.04,.49,6.14,.5,9.22,.05,12.67,.22,25.33-.05,37.99-.16,7.75,4.95,9.18,10.18,8.02,1.53-.34,3.01-.92,4.72-1.46Zm-26.47-35.16c-4.58,.98-8.89,1.88-13.19,2.83-8.77,1.93-17.6,3.63-25.84,7.45-5.2,2.41-7.69,6.55-7.69,12.09,0,5.88,2.04,11.08,7.72,13.48,9.38,3.97,18.37,2.2,26.42-3.64,10.87-7.88,13.41-19.25,12.57-32.21Z"/><path class="cls-1" d="M105.02,235.6c-3.47-.66-6.72-1.28-10.17-1.94,1.47-6.87,4.71-12.53,9.58-17.3,6.17-6.06,13.68-9.22,22.23-9.41,4.87-.11,9.89,.11,14.62,1.2,12.15,2.78,19.78,11.83,21.1,24.26,.32,2.97,.48,5.98,.49,8.97,.05,12.92,.01,25.83,.03,38.75,0,6.02,3.06,8.68,9.04,7.76,1.94-.3,3.83-1.01,5.74-1.53,.88,6.58-2.12,10.43-8.62,11.1-8.87,.91-15.39-4.27-17.17-13.68-.23-1.22-.37-2.46-.61-4.13-.95,1.5-1.65,2.76-2.5,3.9-8.95,12.08-25.5,17.57-39.91,13.29-14.9-4.43-21.67-22.01-13.33-34.6,3.15-4.75,8.01-7.14,12.97-9.37,9.35-4.2,19.4-5.84,29.32-7.95,3.99-.85,7.99-1.63,11.97-2.53,.58-.13,1.48-.76,1.5-1.18,.23-5.98-.17-11.84-3.83-16.95-3.55-4.96-8.55-7.34-14.45-7.77-14.25-1.05-22.54,4.43-27.52,17.93-.11,.3-.24,.6-.47,1.2Zm46.07,15.53c-3.59,.76-7.17,1.49-10.73,2.29-9.4,2.12-18.93,3.77-27.82,7.79-5.42,2.46-8.06,6.62-8.03,12.38,.03,5.99,2.31,10.98,8.05,13.57,5.91,2.66,12.07,2.27,18.06,.28,14.11-4.67,22.48-18.34,20.47-36.32Z"/><path class="cls-1" d="M463.77,266.54c3.35-.42,6.38-.79,9.55-1.19,.52,2.07,.88,4.02,1.5,5.89,3.43,10.42,11.12,15.68,21.59,17.06,7.26,.96,14.47,.54,21.19-2.93,5.13-2.65,7.47-6.86,7.27-12.6-.19-5.58-2.89-9.53-8.14-11.02-6.94-1.96-14.04-3.39-21.11-4.83-5.95-1.21-11.94-2.16-17.43-5.01-9.12-4.72-13.24-13.02-11.62-23.22,1.37-8.56,6.17-14.69,13.81-18.06,13.76-6.07,27.66-5.62,40.83,1.75,9.59,5.38,12.97,14.66,13.79,25.43-2.8,.23-5.42,.57-8.05,.57-.55,0-1.43-1.12-1.59-1.86-1.08-4.87-2.75-9.4-6.3-13.08-4.29-4.44-9.78-6.28-15.67-6.89-6.43-.67-12.84-.51-18.68,2.91-4.71,2.76-7.15,6.77-6.98,12.32,.17,5.66,2.95,9.7,8.14,11.4,5.18,1.7,10.63,2.64,16,3.65,7.19,1.36,14.46,2.2,21.28,5.16,7.77,3.37,12.55,8.85,13.19,17.51,.68,9.35-2.2,17.07-10.35,22.32-8.01,5.16-16.92,6.75-26.27,6.33-9.56-.43-18.38-3.04-25.83-9.3-6.82-5.73-9.5-13.41-10.12-22.33Z"/><path class="cls-1" d="M0,295.75v-86.45H11.86v15.12c.55-.43,.86-.56,.97-.78,5.79-11.94,19.59-18.41,34.31-16.58,14.9,1.85,22.67,11.33,25.2,26.43,.49,2.94,.62,5.97,.63,8.96,.06,16.99,.03,33.99,.03,50.98,0,.73-.07,1.46-.12,2.32h-11.98c0-.99,0-1.88,0-2.77,0-16.83,0-33.65,0-50.48,0-6.44-1.11-12.56-5-17.96-2.27-3.15-5.14-5.4-8.76-6.74-15.69-5.82-33.13,5.05-34.77,21.71-.23,2.32-.35,4.65-.36,6.98-.03,15.41-.02,30.82-.02,46.23v3.04H0Z"/><path class="cls-1" d="M318.53,280.13c.64-1.38,1.04-2.15,1.36-2.94,8.86-21.81,17.74-43.61,26.52-65.46,.81-2.01,1.78-2.83,3.99-2.67,2.87,.22,5.77,.05,9.01,.05-.65,1.59-1.12,2.8-1.63,4-11.33,26.73-22.69,53.46-33.94,80.22-.85,2.02-1.85,2.82-4.01,2.57-2.28-.26-5.1,.53-6.75-.55-1.57-1.03-1.97-3.88-2.85-5.94-10.95-25.81-21.89-51.62-32.83-77.43-.35-.82-.64-1.65-1.1-2.85,4.08,0,7.89-.11,11.67,.1,.67,.04,1.5,1.35,1.86,2.23,6.87,16.43,13.68,32.88,20.5,49.32,2.3,5.53,4.59,11.07,6.89,16.6,.3,.72,.67,1.42,1.31,2.75Z"/><path class="cls-1" d="M319.78,47.98h-13.29c0-1.76-.11-3.25,.06-4.7,.06-.51,.76-1.2,1.3-1.36,1.99-.57,4.06-.9,6.06-1.42,3.45-.9,6.06-2.94,7.04-6.42,1.55-5.51,3-11.06,4.17-16.67,.45-2.14,1.27-2.79,3.27-2.53,1.05,.13,2.13,.02,3.42,.02v24.13h24.98v8.92h-24.78c-.06,1.08-.14,1.88-.14,2.69,0,18.4,.1,36.81-.05,55.21-.08,10.18,4.71,14.08,15.26,12.14,3.52-.65,6.8-2.58,10.17-3.96,.82-.33,1.59-.78,2.73-1.34,0,2.79,.04,5.18-.04,7.56-.02,.49-.39,1.08-.77,1.44-6.7,6.18-21.28,8.42-29.49,4.68-5.74-2.62-8.46-7.29-9.26-13.26-.36-2.63-.5-5.31-.51-7.96-.04-18.49-.02-36.98-.03-55.46,0-.41-.05-.83-.11-1.7Z"/><path class="cls-1" d="M200.49,184.99h5.98v24.04h25.22v8.89h-25c-.06,1.24-.14,2.13-.14,3.02,0,18.08,0,36.16,0,54.24,0,.33,0,.67,0,1,.08,8.9,3.33,13.83,15.13,11.84,3.52-.6,6.81-2.55,10.19-3.92,.89-.36,1.73-.85,2.94-1.46,0,2.8,.04,5.19-.04,7.57-.02,.48-.42,1.06-.8,1.41-6.83,6.24-21.25,8.5-29.48,4.77-6.8-3.08-9.32-8.84-9.57-15.7-.32-8.82-.2-17.66-.22-26.49-.03-11.33,0-22.66-.02-33.99,0-.64-.12-1.28-.21-2.14h-12.98v-5.91c2.28-.52,4.54-.99,6.79-1.54,3.75-.92,6.51-3.11,7.56-6.88,1.47-5.28,2.68-10.63,4-15.95,.22-.89,.41-1.78,.63-2.8Z"/><path class="cls-1" d="M470.91,.01h11.77V125.67h-11.77V.01Z"/><path class="cls-1" d="M162.46,125.77h-11.79V39.35h11.79V125.77Z"/><path class="cls-1" d="M250.07,209.28h11.76v86.4h-11.76v-86.4Z"/><path class="cls-1" d="M280.84,39.24h11.81V125.74h-11.81V39.24Z"/><path class="cls-1" d="M280.4,15.81V.07h12.63V15.81h-12.63Z"/><path class="cls-1" d="M262.21,185.84h-12.6v-15.75h12.6v15.75Z"/><path class="cls-1" d="M150.36,0h12.47V15.8h-12.47V0Z"/></svg>