<svg xmlns="http://www.w3.org/2000/svg" width="483.168" height="258.33" viewBox="0 0 483.168 258.33"><defs><style>.cls-1 {fill: #fff;}</style></defs><path id="bars-solid" class="cls-1" d="M0-.4C0-8.652,15.423-15.319,34.512-15.319H448.656c19.089,0,34.512,6.666,34.512,14.918s-15.423,14.918-34.512,14.918H34.512C15.423,14.516,0,7.85,0-.4ZM0,114.443c0-8.251,15.423-14.918,34.512-14.918H448.656c19.089,0,34.512,6.666,34.512,14.918s-15.423,14.918-34.512,14.918H34.512C15.423,129.361,0,122.694,0,114.443ZM483.168,228.094c0,8.251-15.423,14.918-34.512,14.918H34.512C15.423,243.012,0,236.345,0,228.094s15.423-14.918,34.512-14.918H448.656C467.746,213.176,483.168,219.843,483.168,228.094Z" transform="translate(0 15.319)"/></svg>
